<?xml version="1.0"?>
<svg xmlns="http://www.w3.org/2000/svg" xmlns:xlink="http://www.w3.org/1999/xlink" width="512" height="512" viewBox="0 0 128 128"><defs><linearGradient id="a" x1="118.724" y1="118.877" x2="9.276" y2="9.43" gradientUnits="userSpaceOnUse"><stop offset="0" stop-color="#de6246"/><stop offset="1" stop-color="#f4d844"/></linearGradient></defs><path d="M121.25,14.748a1.75,1.75,0,1,0,0,3.5,3.254,3.254,0,0,1,3.25,3.25V33.623H3.5V21.5a3.254,3.254,0,0,1,3.25-3.25h97.417a1.75,1.75,0,0,0,0-3.5H6.75A6.758,6.758,0,0,0,0,21.5v85.528a6.233,6.233,0,0,0,6.226,6.226H121.774A6.233,6.233,0,0,0,128,107.026V21.5A6.758,6.758,0,0,0,121.25,14.748Zm3.25,92.278a2.729,2.729,0,0,1-2.726,2.726H6.226A2.729,2.729,0,0,1,3.5,107.026v-69.9h121ZM49.687,24.186H118.25a1.75,1.75,0,0,1,0,3.5H49.687a1.75,1.75,0,0,1,0-3.5Zm-35.31,0a1.75,1.75,0,0,1,0,3.5H9.75a1.75,1.75,0,0,1,0-3.5Zm13.312,0a1.75,1.75,0,0,1,0,3.5H23.062a1.75,1.75,0,0,1,0-3.5Zm13.313,0a1.75,1.75,0,0,1,0,3.5H36.375a1.75,1.75,0,0,1,0-3.5ZM70,74.307l-2.209,4.381a1.75,1.75,0,1,1-3.125-1.576l2.209-4.382A1.75,1.75,0,0,1,70,74.307ZM48.5,92.552a1.752,1.752,0,0,1,.1-1.336L69.135,50.481a1.75,1.75,0,0,1,2.35-.774l7.144,3.6a1.748,1.748,0,0,1,.774,2.35l-4.349,8.626a1.75,1.75,0,1,1-3.125-1.576l3.561-7.063L71.472,53.62,52.51,91.229l4.018,2.026,3.086-6.12a1.75,1.75,0,1,1,3.125,1.576l-3.874,7.683a1.751,1.751,0,0,1-2.35.774l-7.144-3.6A1.755,1.755,0,0,1,48.5,92.552ZM93.554,74.038l-9.219,9.275a1.748,1.748,0,0,0,.008,2.474l5.673,5.64a1.748,1.748,0,0,0,2.474-.008L108.584,75.23a1.748,1.748,0,0,0-.008-2.474L91.008,55.292a1.749,1.749,0,0,0-2.475.008l-5.639,5.673a1.749,1.749,0,0,0,.007,2.474Zm-3.772-15.03,15.086,15L91.242,87.711l-3.191-3.173,9.219-9.274a1.751,1.751,0,0,0-.008-2.475L86.609,62.2ZM35.617,91.587a1.749,1.749,0,0,0,2.475-.008l5.639-5.673a1.749,1.749,0,0,0-.007-2.474l-9.274-9.22L45.04,63.559a1.749,1.749,0,0,0-.008-2.475l-5.673-5.64a1.748,1.748,0,0,0-2.474.008L19.42,73.02a1.748,1.748,0,0,0,.008,2.474ZM38.133,59.16l3.191,3.173L30.734,72.986a1.751,1.751,0,0,0,.008,2.475l9.274,9.219-3.173,3.191L23.136,74.245Z" fill="url(#a)"/></svg>
