<?xml version="1.0"?>
<svg xmlns="http://www.w3.org/2000/svg" xmlns:xlink="http://www.w3.org/1999/xlink" width="512" height="512" viewBox="0 0 128 128"><defs><linearGradient id="a" x1="106.647" y1="106.647" x2="21.353" y2="21.353" gradientUnits="userSpaceOnUse"><stop offset="0" stop-color="#de6246"/><stop offset="1" stop-color="#f4d844"/></linearGradient></defs><path d="M126.25,41.682H116.166A56.464,56.464,0,0,0,69.75,7.545l-.038,0C67.828,7.354,65.924,7.25,64,7.25s-3.825.1-5.707.291c-.015,0-.03,0-.046,0A56.462,56.462,0,0,0,11.835,41.682H1.75A1.75,1.75,0,0,0,0,43.432V84.568a1.75,1.75,0,0,0,1.75,1.75H11.835a56.463,56.463,0,0,0,46.413,34.136c.015,0,.03,0,.046.005,1.881.187,3.784.291,5.706.291a56.828,56.828,0,0,0,16-2.3l.01,0A56.4,56.4,0,0,0,93.144,112.7a1.75,1.75,0,0,0-1.8-3,52.72,52.72,0,0,1-8.372,4.062,93.2,93.2,0,0,0,6.141-20.372H108.4a53.628,53.628,0,0,1-4.758,6.155,1.749,1.749,0,1,0,2.605,2.336,56.8,56.8,0,0,0,6.73-9.236,1.669,1.669,0,0,0,.087-.147,56.478,56.478,0,0,0,3.1-6.177H126.25a1.749,1.749,0,0,0,1.75-1.75V43.432A1.749,1.749,0,0,0,126.25,41.682Zm-17.836-7.069h-19.3a93.106,93.106,0,0,0-6.155-20.4A52.9,52.9,0,0,1,108.414,34.613ZM69.284,11.7c3.593,4.552,6.873,12.862,9.034,22.916H69.284ZM45.043,14.21a93.106,93.106,0,0,0-6.155,20.4h-19.3A52.9,52.9,0,0,1,45.043,14.21ZM19.583,93.387H38.888A93.134,93.134,0,0,0,45.045,113.8,52.9,52.9,0,0,1,19.583,93.387ZM58.716,116.3c-3.593-4.552-6.874-12.862-9.034-22.915h9.034ZM110.53,89.887H87.659a1.749,1.749,0,0,0-1.722,1.438c-1.744,9.629-4.372,17.881-7.6,23.963q-2.385.666-4.829,1.1c3.6-5.568,6.679-14.178,8.676-24.42a1.75,1.75,0,0,0-1.718-2.085H67.534a1.749,1.749,0,0,0-1.75,1.75V117.22q-.891.03-1.784.03c-.6,0-1.191-.013-1.784-.032V91.637a1.75,1.75,0,0,0-1.75-1.75H47.537a1.75,1.75,0,0,0-1.718,2.085c2,10.281,5.085,18.874,8.688,24.437-1.636-.293-3.247-.666-4.833-1.105-3.235-6.084-5.866-14.342-7.611-23.979a1.75,1.75,0,0,0-1.722-1.438H17.462q-.965-1.742-1.809-3.569h96.693Q111.5,88.139,110.53,89.887ZM69.284,116.306V93.387h9.035C76.145,103.543,72.917,111.727,69.284,116.306ZM124.5,82.818H3.5V45.182H28.875a1.75,1.75,0,0,0,0-3.5H15.661q.842-1.829,1.807-3.569H40.341a1.75,1.75,0,0,0,1.722-1.438c1.746-9.639,4.376-17.9,7.613-23.981q2.374-.659,4.827-1.1c-3.6,5.563-6.681,14.153-8.684,24.431a1.75,1.75,0,0,0,1.718,2.085H60.466a1.75,1.75,0,0,0,1.75-1.75V10.783c.593-.019,1.187-.033,1.784-.033s1.191.014,1.784.033v25.58a1.749,1.749,0,0,0,1.75,1.75H80.463a1.75,1.75,0,0,0,1.718-2.085C80.178,25.75,77.1,17.16,73.5,11.6q2.451.44,4.828,1.1c3.235,6.084,5.866,14.343,7.612,23.981a1.749,1.749,0,0,0,1.722,1.438h22.873q.965,1.74,1.807,3.569H51.875a1.75,1.75,0,0,0,0,3.5H124.5ZM58.716,11.7V34.613H49.682C51.842,24.56,55.123,16.25,58.716,11.7ZM43.554,43.432a1.751,1.751,0,0,1-1.75,1.75H38.946a1.75,1.75,0,0,1,0-3.5H41.8A1.75,1.75,0,0,1,43.554,43.432Zm35.909,9.413-4.622,23A1.751,1.751,0,0,1,73.553,77.2a1.785,1.785,0,0,1-.428.053,1.751,1.751,0,0,1-1.347-.633L64,67.241l-7.778,9.376a1.75,1.75,0,0,1-3.063-.772l-4.621-23a1.75,1.75,0,1,1,3.431-.69l3.9,19.407,6.784-8.179a1.807,1.807,0,0,1,2.694,0l6.785,8.179,3.9-19.407a1.75,1.75,0,0,1,3.432.69Zm36.322-2.061a1.751,1.751,0,0,1,1.371,2.061l-4.622,23a1.749,1.749,0,0,1-3.062.772l-7.779-9.376-7.778,9.376a1.751,1.751,0,0,1-1.347.633,1.777,1.777,0,0,1-.427-.053,1.748,1.748,0,0,1-1.288-1.352l-4.622-23a1.75,1.75,0,0,1,3.432-.69l3.9,19.407,6.785-8.179a1.806,1.806,0,0,1,2.693,0l6.785,8.179,3.9-19.407A1.75,1.75,0,0,1,115.785,50.784ZM41.769,52.845l-4.622,23A1.751,1.751,0,0,1,35.859,77.2a1.785,1.785,0,0,1-.428.053,1.751,1.751,0,0,1-1.347-.633l-7.778-9.376-7.778,9.376a1.75,1.75,0,0,1-3.063-.772l-4.621-23a1.75,1.75,0,1,1,3.431-.69l3.9,19.407,6.784-8.179a1.807,1.807,0,0,1,2.694,0l6.784,8.179,3.9-19.407a1.75,1.75,0,0,1,3.432.69Z" fill="url(#a)"/></svg>
