<svg height="512" viewBox="0 0 128 128" width="512" xmlns="http://www.w3.org/2000/svg" xmlns:xlink="http://www.w3.org/1999/xlink"><linearGradient id="a" gradientUnits="userSpaceOnUse" x1="114.396" x2="13.604" y1="99.975" y2="-.816"><stop offset="0" stop-color="#de6246"/><stop offset="1" stop-color="#f4d844"/></linearGradient><path d="m121.25 8.83h-114.5a6.757 6.757 0 0 0 -6.75 6.75v68a6.758 6.758 0 0 0 6.75 6.75h44.79v3.906a15.729 15.729 0 0 1 -8.68 14.014h-7.213a5.46 5.46 0 1 0 0 10.92h56.706a5.46 5.46 0 0 0 0-10.92h-7.194a15.7 15.7 0 0 1 -5.677-4.764 1.75 1.75 0 0 0 -2.826 2.066 19.151 19.151 0 0 0 2.4 2.7h-30.119a19.249 19.249 0 0 0 6.1-14.014v-3.908h17.923v3.906a1.75 1.75 0 0 0 3.5 0v-3.906h44.79a6.758 6.758 0 0 0 6.75-6.75v-68a6.757 6.757 0 0 0 -6.75-6.75zm-36.532 102.92h7.635a1.96 1.96 0 0 1 0 3.92h-56.706a1.96 1.96 0 1 1 0-3.92zm-81.218-96.17a3.254 3.254 0 0 1 3.25-3.25h114.5a3.254 3.254 0 0 1 3.25 3.25v53.92h-121zm121 68a3.254 3.254 0 0 1 -3.25 3.25h-114.5a3.254 3.254 0 0 1 -3.25-3.25v-10.58h121zm-11.5-58v30.667a1.75 1.75 0 0 1 -1.75 1.753h-94.5a1.751 1.751 0 0 1 -1.75-1.753v-30.667a1.751 1.751 0 0 1 1.75-1.75h16.25a1.75 1.75 0 0 1 0 3.5h-14.5v27.17h91v-27.17h-50.5a1.75 1.75 0 0 1 0-3.5h52.25a1.75 1.75 0 0 1 1.75 1.75zm-70.75 0a1.751 1.751 0 0 1 1.75-1.75h4a1.75 1.75 0 0 1 0 3.5h-4a1.751 1.751 0 0 1 -1.75-1.75zm14.125 54.333a1.751 1.751 0 0 1 1.75-1.75h11.75a1.75 1.75 0 0 1 0 3.5h-11.75a1.751 1.751 0 0 1 -1.75-1.75zm-2.458-39a1.75 1.75 0 0 1 1.75-1.75h4.108l-2.905-2.9a1.75 1.75 0 0 1 2.475-2.475l2.905 2.905v-4.113a1.75 1.75 0 0 1 3.5 0v4.108l2.905-2.905a1.75 1.75 0 1 1 2.475 2.475l-2.905 2.9h4.108a1.75 1.75 0 0 1 0 3.5h-4.108l2.905 2.905a1.75 1.75 0 1 1 -2.475 2.475l-2.905-2.9v4.109a1.75 1.75 0 0 1 -3.5 0v-4.109l-2.905 2.905a1.75 1.75 0 0 1 -2.475-2.475l2.905-2.905h-4.108a1.75 1.75 0 0 1 -1.75-1.75zm29.75-1.75h4.108l-2.905-2.9a1.75 1.75 0 1 1 2.475-2.475l2.905 2.905v-4.113a1.75 1.75 0 0 1 3.5 0v4.108l2.905-2.905a1.75 1.75 0 1 1 2.475 2.475l-2.905 2.9h4.108a1.75 1.75 0 0 1 0 3.5h-4.108l2.905 2.905a1.75 1.75 0 1 1 -2.475 2.475l-2.905-2.9v4.109a1.75 1.75 0 1 1 -3.5 0v-4.109l-2.905 2.905a1.75 1.75 0 0 1 -2.475-2.475l2.905-2.905h-4.108a1.75 1.75 0 0 1 0-3.5zm-49.417-6.583a1.75 1.75 0 0 1 3.5 0v4.108l2.905-2.905a1.75 1.75 0 0 1 2.475 2.475l-2.905 2.9h4.108a1.75 1.75 0 0 1 0 3.5h-4.108l2.905 2.905a1.75 1.75 0 1 1 -2.475 2.475l-2.905-2.9v4.109a1.75 1.75 0 0 1 -3.5 0v-4.109l-2.905 2.905a1.75 1.75 0 0 1 -2.475-2.475l2.9-2.905h-4.103a1.75 1.75 0 0 1 0-3.5h4.108l-2.9-2.9a1.75 1.75 0 1 1 2.475-2.475l2.905 2.905z" fill="url(#a)"/></svg>