<?xml version="1.0"?>
<svg xmlns="http://www.w3.org/2000/svg" xmlns:xlink="http://www.w3.org/1999/xlink" width="512" height="512" viewBox="0 0 128 128"><defs><linearGradient id="a" x1="114.543" y1="99.828" x2="13.752" y2="-0.963" gradientUnits="userSpaceOnUse"><stop offset="0" stop-color="#de6246"/><stop offset="1" stop-color="#f4d844"/></linearGradient></defs><path d="M58.125,81.663a1.75,1.75,0,0,1,0-3.5h11.75a1.75,1.75,0,0,1,0,3.5ZM75.667,32.3a1.749,1.749,0,0,0-1.75,1.75v2.8a1.75,1.75,0,1,0,3.5,0v-2.8A1.749,1.749,0,0,0,75.667,32.3ZM128,15.58v68a6.758,6.758,0,0,1-6.75,6.75H76.46v3.905a15.73,15.73,0,0,0,8.68,14.015h7.213a5.46,5.46,0,0,1,0,10.92H35.647a5.46,5.46,0,1,1,0-10.92H42.86a15.73,15.73,0,0,0,8.68-14.015V90.33H14.167a1.75,1.75,0,0,1,0-3.5H121.25a3.254,3.254,0,0,0,3.25-3.25V73H3.5V83.58a1.75,1.75,0,0,1-3.5,0v-68A6.758,6.758,0,0,1,6.75,8.83h114.5A6.758,6.758,0,0,1,128,15.58ZM92.353,111.75H35.647a1.96,1.96,0,1,0,0,3.92H92.353a1.96,1.96,0,0,0,0-3.92ZM72.96,94.235V90.33H55.04v3.905a19.247,19.247,0,0,1-6.1,14.015H79.062A19.25,19.25,0,0,1,72.96,94.235ZM124.5,69.5V15.58a3.254,3.254,0,0,0-3.25-3.25H77.417V24.167a1.75,1.75,0,0,1-3.5,0V12.33H6.75A3.254,3.254,0,0,0,3.5,15.58V69.5H73.917V46.729a1.75,1.75,0,0,1,3.5,0V69.5Zm-8.25-10H85.667a1.75,1.75,0,0,0,0,3.5H116.25a1.75,1.75,0,0,0,0-3.5Zm0-10.325H85.667a1.75,1.75,0,0,0,0,3.5H116.25a1.75,1.75,0,0,0,0-3.5ZM118,20.58V40.913a1.749,1.749,0,0,1-1.75,1.75H85.667a1.749,1.749,0,0,1-1.75-1.75V20.58a1.749,1.749,0,0,1,1.75-1.75H116.25A1.749,1.749,0,0,1,118,20.58ZM87.417,22.33V32.1l8.695-3.4a1.751,1.751,0,0,1,1.217-.021L114.5,34.7V22.33ZM114.5,38.408,96.783,32.2l-9.366,3.662v3.3H114.5Zm-6.187-13.8a2.75,2.75,0,1,0,2.75,2.75A2.754,2.754,0,0,0,108.313,24.6ZM65.667,26.963H49.083a1.75,1.75,0,0,0,0,3.5H65.667a1.75,1.75,0,0,0,0-3.5Zm-24.75,0H26.833a1.75,1.75,0,0,0,0,3.5H40.917a1.75,1.75,0,0,0,0-3.5Zm24.75,24.4H49.083a1.75,1.75,0,0,0,0,3.5H65.667a1.75,1.75,0,0,0,0-3.5Zm-23,1.75a1.749,1.749,0,0,0-1.75-1.75H26.833a1.75,1.75,0,0,0,0,3.5H40.917A1.749,1.749,0,0,0,42.667,53.113Zm23-18.016H33.5a1.75,1.75,0,0,0,0,3.5H65.667a1.75,1.75,0,0,0,0-3.5ZM40.583,46.729a1.75,1.75,0,0,0,0-3.5H33.5a1.75,1.75,0,0,0,0,3.5Zm-12-1.75a1.75,1.75,0,0,0-1.75-1.75H11.75a1.75,1.75,0,0,0,0,3.5H26.833A1.749,1.749,0,0,0,28.583,44.979ZM33.5,22.33h7.083a1.75,1.75,0,0,0,0-3.5H33.5a1.75,1.75,0,0,0,0,3.5Zm-21.75,0H26.833a1.75,1.75,0,0,0,0-3.5H11.75a1.75,1.75,0,0,0,0,3.5ZM65.667,59.5H33.5a1.75,1.75,0,0,0,0,3.5H65.667a1.75,1.75,0,0,0,0-3.5Z" fill="url(#a)"/></svg>
