<?xml version="1.0"?>
<svg xmlns="http://www.w3.org/2000/svg" xmlns:xlink="http://www.w3.org/1999/xlink" width="512" height="512" viewBox="0 0 128 128"><defs><linearGradient id="a" x1="114.396" y1="99.975" x2="13.604" y2="-0.816" gradientUnits="userSpaceOnUse"><stop offset="0" stop-color="#de6246"/><stop offset="1" stop-color="#f4d844"/></linearGradient></defs><path d="M121.25,8.83H56.375a1.75,1.75,0,0,0,0,3.5H121.25a3.254,3.254,0,0,1,3.25,3.25V69.5H3.5V15.58a3.254,3.254,0,0,1,3.25-3.25H23.5a1.75,1.75,0,0,0,0-3.5H6.75A6.757,6.757,0,0,0,0,15.58v68a6.758,6.758,0,0,0,6.75,6.75H51.54v3.906a15.729,15.729,0,0,1-8.68,14.014H35.647a5.46,5.46,0,0,0,0,10.92H92.353a5.46,5.46,0,1,0,0-10.92h-7.2a15.728,15.728,0,0,1-5.367-4.357,1.75,1.75,0,0,0-2.757,2.156,18.954,18.954,0,0,0,2.02,2.2H48.938a19.252,19.252,0,0,0,6.1-14.014V90.33H72.96v3.906a1.75,1.75,0,0,0,3.5,0V90.33h44.79A6.758,6.758,0,0,0,128,83.58v-68A6.757,6.757,0,0,0,121.25,8.83ZM84.718,111.75h7.635a1.96,1.96,0,1,1,0,3.92H35.647a1.96,1.96,0,0,1,0-3.92H84.718ZM124.5,83.58a3.254,3.254,0,0,1-3.25,3.25H6.75A3.254,3.254,0,0,1,3.5,83.58V73h121Zm-88.875-73a1.75,1.75,0,0,1,1.75-1.75H42.5a1.75,1.75,0,0,1,0,3.5H37.375A1.751,1.751,0,0,1,35.625,10.58Zm20.75,69.333a1.751,1.751,0,0,1,1.75-1.75h11.75a1.75,1.75,0,0,1,0,3.5H58.125A1.751,1.751,0,0,1,56.375,79.913ZM64,49.91a9,9,0,1,0-9-9A9.007,9.007,0,0,0,64,49.91Zm0-14.493a5.5,5.5,0,1,1-5.5,5.5A5.5,5.5,0,0,1,64,35.417ZM48.809,33.323a16.859,16.859,0,0,0-.919,2.215H42.5a1.751,1.751,0,0,0-1.75,1.75v7.25a1.751,1.751,0,0,0,1.75,1.75h5.391a16.774,16.774,0,0,0,.918,2.215L45,52.315a1.749,1.749,0,0,0,0,2.475l5.126,5.127a1.751,1.751,0,0,0,2.475,0L56.41,56.1a16.64,16.64,0,0,0,2.215.918v5.391a1.751,1.751,0,0,0,1.75,1.75h7.25a1.751,1.751,0,0,0,1.75-1.75V57.022A16.64,16.64,0,0,0,71.59,56.1L75.4,59.917a1.751,1.751,0,0,0,2.475,0L83,54.79a1.749,1.749,0,0,0,0-2.475L79.191,48.5a16.774,16.774,0,0,0,.918-2.215H85.5a1.751,1.751,0,0,0,1.75-1.75v-7.25a1.751,1.751,0,0,0-1.75-1.75H80.11a16.859,16.859,0,0,0-.919-2.215L83,29.511a1.749,1.749,0,0,0,0-2.475L77.877,21.91a1.749,1.749,0,0,0-2.475,0L71.59,25.722a16.724,16.724,0,0,0-2.215-.919v-5.39a1.751,1.751,0,0,0-1.75-1.75h-7.25a1.751,1.751,0,0,0-1.75,1.75V24.8a16.724,16.724,0,0,0-2.215.919L52.6,21.91a1.749,1.749,0,0,0-2.475,0L45,27.036a1.749,1.749,0,0,0,0,2.475Zm2.551-7.7,3.506,3.5a1.749,1.749,0,0,0,2.146.258,13.371,13.371,0,0,1,3.779-1.567,1.75,1.75,0,0,0,1.334-1.7V21.163h3.75v4.955a1.75,1.75,0,0,0,1.334,1.7,13.371,13.371,0,0,1,3.779,1.567,1.749,1.749,0,0,0,2.146-.258l3.506-3.5,2.651,2.651-3.5,3.506a1.749,1.749,0,0,0-.258,2.146A13.374,13.374,0,0,1,77.094,37.7a1.751,1.751,0,0,0,1.7,1.334H83.75v3.75H78.794a1.751,1.751,0,0,0-1.7,1.335A13.346,13.346,0,0,1,75.528,47.9a1.749,1.749,0,0,0,.258,2.146l3.5,3.506L76.64,56.2,73.134,52.7a1.75,1.75,0,0,0-2.146-.258,13.34,13.34,0,0,1-3.779,1.566,1.751,1.751,0,0,0-1.334,1.7v4.955h-3.75V55.708a1.751,1.751,0,0,0-1.334-1.7,13.34,13.34,0,0,1-3.779-1.566,1.749,1.749,0,0,0-2.146.258L51.36,56.2l-2.651-2.651,3.5-3.506a1.749,1.749,0,0,0,.258-2.146,13.346,13.346,0,0,1-1.566-3.778,1.751,1.751,0,0,0-1.7-1.335H44.25v-3.75h4.956a1.751,1.751,0,0,0,1.7-1.334,13.374,13.374,0,0,1,1.566-3.779,1.749,1.749,0,0,0-.258-2.146l-3.5-3.506Z" fill="url(#a)"/></svg>
